<mxfile host="app.diagrams.net" modified="2022-05-02T14:58:48.255Z" agent="5.0 (Windows NT 10.0; Win64; x64) AppleWebKit/537.36 (KHTML, like Gecko) Chrome/101.0.4951.41 Safari/537.36" etag="eLq35S5bNqGSbbdfNqbu" version="15.8.6" type="github">
  <diagram id="NY1AUPs4rRsYDSzFZGUB" name="Page-1">
    <mxGraphModel dx="1422" dy="794" grid="1" gridSize="10" guides="1" tooltips="1" connect="1" arrows="1" fold="1" page="1" pageScale="1" pageWidth="827" pageHeight="1169" math="0" shadow="0">
      <root>
        <mxCell id="0" />
        <mxCell id="1" parent="0" />
        <mxCell id="57-doGeO_3iZ0Xec1Uku-1" value="" style="rounded=1;whiteSpace=wrap;html=1;" vertex="1" parent="1">
          <mxGeometry x="260" y="390" width="120" height="60" as="geometry" />
        </mxCell>
        <mxCell id="57-doGeO_3iZ0Xec1Uku-2" value="&lt;div style=&quot;box-sizing: border-box ; color: rgb(13 , 37 , 50) ; font-family: &amp;#34;open sans hebrew&amp;#34; , &amp;#34;open sans&amp;#34; , sans-serif ; font-size: 11px&quot;&gt;&lt;font style=&quot;font-size: 11px&quot;&gt;A empresa Savinis, focada no desenvolvimento de software de alta performance, contratou você para realizar o desenvolvimento de um sistema de cadastro para eventos que será disponibilizado para o público, o que, até então, era realizado manualmente.&lt;/font&gt;&lt;/div&gt;&lt;div style=&quot;box-sizing: border-box ; color: rgb(13 , 37 , 50) ; font-family: &amp;#34;open sans hebrew&amp;#34; , &amp;#34;open sans&amp;#34; , sans-serif ; font-size: 11px&quot;&gt;&lt;font style=&quot;font-size: 11px&quot;&gt;&amp;nbsp;&lt;/font&gt;&lt;/div&gt;&lt;div style=&quot;box-sizing: border-box ; color: rgb(13 , 37 , 50) ; font-family: &amp;#34;open sans hebrew&amp;#34; , &amp;#34;open sans&amp;#34; , sans-serif ; font-size: 11px&quot;&gt;&lt;font style=&quot;font-size: 11px&quot;&gt;Esse sistema terá como função principal a divulgação dos eventos para a&amp;nbsp;comunidade de desenvolvimento (grupo de pessoas que tem o intuito de compartilhar ideias, projetos e conhecimentos) para que sejam consultados de forma eficiente.&lt;/font&gt;&lt;/div&gt;&lt;div style=&quot;box-sizing: border-box ; color: rgb(13 , 37 , 50) ; font-family: &amp;#34;open sans hebrew&amp;#34; , &amp;#34;open sans&amp;#34; , sans-serif ; font-size: 11px&quot;&gt;&lt;font style=&quot;font-size: 11px&quot;&gt;&amp;nbsp;&lt;/font&gt;&lt;/div&gt;&lt;div style=&quot;box-sizing: border-box ; color: rgb(13 , 37 , 50) ; font-family: &amp;#34;open sans hebrew&amp;#34; , &amp;#34;open sans&amp;#34; , sans-serif ; font-size: 11px&quot;&gt;&lt;font style=&quot;font-size: 11px&quot;&gt;Você será responsável por escolher qual técnica irá atender os seguintes requisitos:&lt;/font&gt;&lt;/div&gt;&lt;div style=&quot;box-sizing: border-box ; color: rgb(13 , 37 , 50) ; font-family: &amp;#34;open sans hebrew&amp;#34; , &amp;#34;open sans&amp;#34; , sans-serif ; font-size: 11px&quot;&gt;&lt;ul&gt;&lt;li&gt;&lt;span style=&quot;box-sizing: border-box ; font-weight: 700&quot;&gt;&lt;font style=&quot;font-size: 11px&quot;&gt;Se a data do evento for posterior à data atual, permitir o evento; senão, alertar que o cadastro não será permitido por data inválida.&lt;/font&gt;&lt;/span&gt;&lt;/li&gt;&lt;li&gt;&lt;font style=&quot;font-size: 11px&quot;&gt;&lt;span style=&quot;box-sizing: border-box ; font-weight: 700&quot;&gt;Se o participante for maior de 18 anos, permitir o cadastro; senão, alertar que o cadastro não é permitido pela idade.&lt;/span&gt;&lt;/font&gt;&lt;/li&gt;&lt;li&gt;&lt;font style=&quot;font-size: 11px&quot;&gt;&lt;span style=&quot;box-sizing: border-box ; font-weight: 700&quot;&gt;Listar participantes e palestrantes por evento.&lt;/span&gt;&lt;/font&gt;&lt;/li&gt;&lt;li&gt;&lt;span style=&quot;box-sizing: border-box ; font-weight: 700&quot;&gt;&lt;font style=&quot;font-size: 11px&quot;&gt;Enquanto a quantidade de participantes for inferior a 100, permitir cadastro; senão, alertar que o cadastro não será permitido por ter excedido o limite.&lt;/font&gt;&lt;/span&gt;&lt;/li&gt;&lt;/ul&gt;&lt;/div&gt;&lt;div style=&quot;box-sizing: border-box ; color: rgb(13 , 37 , 50) ; font-family: &amp;#34;open sans hebrew&amp;#34; , &amp;#34;open sans&amp;#34; , sans-serif ; font-size: 11px&quot;&gt;&lt;font style=&quot;font-size: 11px&quot;&gt;&lt;span style=&quot;box-sizing: border-box ; font-weight: 700&quot;&gt;Criar fluxograma com todos os requisitos que devem ser atendidos pelo sistema.&lt;/span&gt;&lt;/font&gt;&lt;/div&gt;&lt;div style=&quot;box-sizing: border-box ; color: rgb(13 , 37 , 50) ; font-family: &amp;#34;open sans hebrew&amp;#34; , &amp;#34;open sans&amp;#34; , sans-serif ; font-size: 11px&quot;&gt;&lt;font style=&quot;font-size: 11px&quot;&gt;&lt;br style=&quot;box-sizing: border-box&quot;&gt;Para criação desse sistema de cadastro, você, enquanto programador(a) responsável, deverá solucionar os seguintes desafios:&lt;/font&gt;&lt;/div&gt;&lt;div style=&quot;box-sizing: border-box ; color: rgb(13 , 37 , 50) ; font-family: &amp;#34;open sans hebrew&amp;#34; , &amp;#34;open sans&amp;#34; , sans-serif ; font-size: 11px&quot;&gt;&lt;ul&gt;&lt;li&gt;&lt;em style=&quot;box-sizing: border-box&quot;&gt;&lt;span style=&quot;box-sizing: border-box ; font-weight: 700&quot;&gt;&lt;font style=&quot;font-size: 11px&quot;&gt;Descrever a sequência de passos lógicos necessários para criação do sistema solicitado pela empresa.&lt;/font&gt;&lt;/span&gt;&lt;/em&gt;&lt;/li&gt;&lt;li&gt;&lt;em style=&quot;box-sizing: border-box&quot;&gt;&lt;span style=&quot;box-sizing: border-box ; font-weight: 700&quot;&gt;&lt;font style=&quot;font-size: 11px&quot;&gt;Aplicar técnicas de programação e ferramentas para desenvolvimento do código.&lt;/font&gt;&lt;/span&gt;&lt;/em&gt;&lt;/li&gt;&lt;li&gt;&lt;em style=&quot;box-sizing: border-box&quot;&gt;&lt;span style=&quot;box-sizing: border-box ; font-weight: 700&quot;&gt;&lt;font style=&quot;font-size: 11px&quot;&gt;Aplicar linguagem de programação para implementação do sistema.&lt;/font&gt;&lt;/span&gt;&lt;/em&gt;&lt;/li&gt;&lt;/ul&gt;&lt;/div&gt;" style="text;html=1;strokeColor=#666666;fillColor=#f5f5f5;align=left;verticalAlign=middle;whiteSpace=wrap;rounded=0;fontColor=#333333;shadow=1;glass=0;perimeterSpacing=10;" vertex="1" parent="1">
          <mxGeometry x="24" y="10" width="780" height="290" as="geometry" />
        </mxCell>
      </root>
    </mxGraphModel>
  </diagram>
</mxfile>
